<svg xmlns="http://www.w3.org/2000/svg" width="21" height="21" viewBox="0 0 21 21" fill="none">
<path d="M17.6056 6.1141C17.4616 5.86461 17.2554 5.65671 17.0071 5.51066C16.7588 5.36461 16.4769 5.2854 16.1889 5.28076H5.52223L5.0389 3.39743C4.99007 3.21563 4.88112 3.05572 4.7298 2.94374C4.57848 2.83176 4.3937 2.77432 4.20557 2.78076H2.5389C2.31789 2.78076 2.10592 2.86856 1.94964 3.02484C1.79336 3.18112 1.70557 3.39308 1.70557 3.6141C1.70557 3.83511 1.79336 4.04707 1.94964 4.20335C2.10592 4.35963 2.31789 4.44743 2.5389 4.44743H3.57223L5.87223 12.9974C5.92107 13.1792 6.03002 13.3391 6.18134 13.4511C6.33266 13.5631 6.51743 13.6205 6.70557 13.6141H14.2056C14.3595 13.6136 14.5102 13.5706 14.6411 13.4897C14.772 13.4088 14.878 13.2932 14.9472 13.1558L17.6806 7.6891C17.799 7.44077 17.8542 7.16699 17.8411 6.89216C17.828 6.61734 17.7471 6.35004 17.6056 6.1141ZM13.6889 11.9474H7.3389L5.98057 6.94743H16.1889L13.6889 11.9474Z" fill="#0D0C21"/>
<path d="M6.28906 17.7808C6.97942 17.7808 7.53906 17.2211 7.53906 16.5308C7.53906 15.8404 6.97942 15.2808 6.28906 15.2808C5.59871 15.2808 5.03906 15.8404 5.03906 16.5308C5.03906 17.2211 5.59871 17.7808 6.28906 17.7808Z" fill="#0D0C21"/>
<path d="M14.6226 17.7808C15.3129 17.7808 15.8726 17.2211 15.8726 16.5308C15.8726 15.8404 15.3129 15.2808 14.6226 15.2808C13.9322 15.2808 13.3726 15.8404 13.3726 16.5308C13.3726 17.2211 13.9322 17.7808 14.6226 17.7808Z" fill="#0D0C21"/>
</svg>