<svg xmlns="http://www.w3.org/2000/svg" width="20" height="21" viewBox="0 0 20 21" fill="none">
<path d="M17.5665 5.95516C17.4225 5.70568 17.2163 5.49777 16.968 5.35172C16.7198 5.20567 16.4379 5.12646 16.1498 5.12183H5.48317L4.99984 3.23849C4.951 3.05669 4.84205 2.89678 4.69073 2.7848C4.53941 2.67283 4.35464 2.61538 4.1665 2.62183H2.49984C2.27882 2.62183 2.06686 2.70962 1.91058 2.8659C1.7543 3.02218 1.6665 3.23415 1.6665 3.45516C1.6665 3.67617 1.7543 3.88814 1.91058 4.04442C2.06686 4.2007 2.27882 4.28849 2.49984 4.28849H3.53317L5.83317 12.8385C5.882 13.0203 5.99095 13.1802 6.14227 13.2922C6.29359 13.4042 6.47837 13.4616 6.6665 13.4552H14.1665C14.3204 13.4547 14.4711 13.4116 14.6021 13.3307C14.733 13.2498 14.8389 13.1343 14.9082 12.9968L17.6415 7.53016C17.76 7.28184 17.8151 7.00805 17.802 6.73323C17.789 6.45841 17.708 6.1911 17.5665 5.95516ZM13.6498 11.7885H7.29984L5.9415 6.78849H16.1498L13.6498 11.7885Z" fill="white"/>
<path d="M6.25 17.6218C6.94036 17.6218 7.5 17.0622 7.5 16.3718C7.5 15.6815 6.94036 15.1218 6.25 15.1218C5.55964 15.1218 5 15.6815 5 16.3718C5 17.0622 5.55964 17.6218 6.25 17.6218Z" fill="white"/>
<path d="M14.5835 17.6218C15.2739 17.6218 15.8335 17.0622 15.8335 16.3718C15.8335 15.6815 15.2739 15.1218 14.5835 15.1218C13.8931 15.1218 13.3335 15.6815 13.3335 16.3718C13.3335 17.0622 13.8931 17.6218 14.5835 17.6218Z" fill="white"/>
</svg>
