<svg width="52" height="22" viewBox="0 0 52 22" fill="none" xmlns="http://www.w3.org/2000/svg">
<path d="M9.78958e-05 5C9.786e-05 4.68942 0.161727 4.40122 0.426738 4.23927L6.26886 0.66907C7.46505 -0.0619396 9.00007 0.798937 9.00008 2.20081L9.00009 3.07039C9.0001 3.79655 8.31767 4.32938 7.61319 4.15327V4.15327C7.23282 4.05818 6.83045 4.16963 6.55321 4.44687L3.9622 7.03788C2.99692 8.00316 1.36963 7.73909 0.759136 6.51809L9.78958e-05 5Z" fill="#A42626"/>
<path d="M9.78958e-05 5C9.78958e-05 4.44771 0.447715 4.00013 1 4.00013H50.0696C50.8805 4.00013 51.3542 4.91457 50.8865 5.57697L46.0518 12.4233C45.8076 12.7691 45.8076 13.2312 46.0518 13.577L50.8865 20.4233C51.3542 21.0857 50.8805 22.0001 50.0696 22.0001H1C0.447716 22.0001 0 21.5524 0 21.0001L9.78958e-05 5Z" fill="#FA5151"/>
</svg>
