<svg xmlns="http://www.w3.org/2000/svg" width="53" height="23" viewBox="0 0 53 23" fill="none">
<path d="M0.999939 6C0.999939 5.68942 1.16157 5.40123 1.42658 5.23927L9.99989 2.35462e-06L9.99994 5.49999L7.99993 5L4.96205 8.03788C3.99676 9.00317 2.36947 8.73909 1.75898 7.51809L0.999939 6Z" fill="#18A852"/>
<path d="M1 6.00012C1 5.44784 1.44772 5.00012 2 5.00012H51.0696C51.8805 5.00012 52.3542 5.91457 51.8865 6.57696L47.0518 13.4233C46.8076 13.7691 46.8076 14.2312 47.0518 14.577L51.8865 21.4233C52.3542 22.0857 51.8805 23.0001 51.0696 23.0001H2C1.44772 23.0001 1 22.5524 1 22.0001V6.00012Z" fill="#27D66D"/>
</svg>