<svg xmlns="http://www.w3.org/2000/svg" width="160" height="115" viewBox="0 0 160 115" fill="none">
<path d="M11.3636 90.7301C10.379 90.088 10.1892 88.7238 10.9612 87.8374L23.0001 74.0149L23.0001 83.515L17.0493 86.5262L15.8182 90.6423C15.427 91.9501 13.8695 92.4904 12.7524 91.7057L11.3636 90.7301Z" fill="#18A852"/>
<path d="M145.5 23.015L140.366 14.0306C139.87 13.1623 138.809 12.7939 137.882 13.1682L111 24.0149L139.5 24.0149L134.5 24.0149C133.224 23.193 133.978 21.2122 135.478 21.4468L145.5 23.015Z" fill="#18A852"/>
<path d="M10.1354 90.8042C9.57521 89.8522 9.89283 88.6264 10.8448 88.0662L138.425 12.9934C139.38 12.4312 140.611 12.7534 141.168 13.7118L146.967 23.6844L153.838 35.2408C154.404 36.1933 154.088 37.4247 153.133 37.9866L25.5521 113.06C24.6002 113.62 23.3743 113.303 22.8141 112.351L10.1354 90.8042Z" fill="#27D66D"/>
</svg>