<svg xmlns="http://www.w3.org/2000/svg" width="20" height="20" viewBox="0 0 20 20" fill="none">
<g clip-path="url(#clip0_497_2938)">
<path fill-rule="evenodd" clip-rule="evenodd" d="M6 5C5.77797 5.86258 4.93191 7 4 7C2.89544 7 2 6.10456 2 5C2 3.89544 2.89544 3 4 3C4.93191 3 5.77797 3.13742 6 4H19C19.1326 4 19.9062 4.90623 20 5C20 4.86739 20.0938 5.09377 20 5C20 5.13261 20.0938 4.90623 20 5C19.9062 5.09377 19.1326 5 19 5H6ZM5 5C5 5.19778 5.10988 5.83555 5 6C4.89012 6.16445 4.18272 5.92431 4 6C3.81728 6.07569 4.19398 6.03858 4 6C3.80602 5.96142 3.13985 6.13985 3 6C2.86015 5.86015 3.03858 5.19398 3 5C2.92431 5.18272 2.96142 4.80602 3 5C3.07569 4.81728 2.83555 4.10988 3 4C3.16445 3.89012 3.80222 4 4 4C4.26521 4 4.81247 3.81247 5 4C5.18753 4.18753 5 4.73479 5 5Z" fill="#246DEF"/>
<path d="M2.29552e-05 4.99999H2.00002C1.96012 4.84022 2.00002 5.17263 2.00002 4.99999C2.00002 4.82734 1.96012 4.15976 2.00002 3.99999H2.29552e-05C-0.128536 3.99999 0.0909276 3.90622 2.29552e-05 3.99999C-0.0908817 4.09376 2.29552e-05 4.86738 2.29552e-05 4.99999C2.29552e-05 5.1326 -0.0908817 4.90622 2.29552e-05 4.99999C0.0909276 5.09376 -0.128536 4.99999 2.29552e-05 4.99999Z" fill="#246DEF"/>
<path fill-rule="evenodd" clip-rule="evenodd" d="M12.0002 15C11.778 14.1374 10.9325 13 10.0002 13C9.0679 13 8.22223 14.1374 8.00019 15H1.00019C0.867518 15 0.0940058 14.9062 0.000191383 15C-0.093623 15.0938 0.000191383 14.8674 0.000191383 15C-0.093623 14.9062 0.000191383 15.1326 0.000191383 15C0.0940058 15.0938 0.867518 16 1.00019 16H8.00019C8.22234 16.8626 9.0679 17 10.0002 17C10.9325 17 11.7782 16.8626 12.0002 16H20.0002C20.1311 15.9973 19.9086 15.0935 20.0002 15C20.0002 15.1309 20.0918 14.9065 20.0002 15C20.0002 14.8691 20.0918 15.0935 20.0002 15C19.9086 14.9065 20.1311 15.0027 20.0002 15H12.0002ZM10.0002 16C10.5528 16 11.0002 15.5523 11.0002 15C11.0002 14.4477 10.5528 14 10.0002 14C9.44758 14 9.00019 14.4477 9.00019 15C9.00019 15.5523 9.44758 16 10.0002 16ZM18.0002 9C17.778 8.13741 16.9325 8 16.0002 8C15.0679 8 14.2222 8.13741 14.0002 9H1.00019C0.867518 9 0.0940058 9.90623 0.000191383 10C-0.093623 10.0938 0.000191383 9.86739 0.000191383 10C-0.093623 9.90623 0.000191383 10.1326 0.000191383 10C0.0940058 10.0938 0.867518 10 1.00019 10H14.0002C14.2223 10.8626 15.0679 12 16.0002 12C16.9325 12 17.7782 10.8626 18.0002 10H20.0002C19.9086 10.0935 20.1311 9.99731 20.0002 10C20.0002 10.1309 20.0918 9.90653 20.0002 10C20.0002 9.86914 20.0918 10.0935 20.0002 10C19.9086 9.90653 20.1311 9.00269 20.0002 9H18.0002ZM16.0002 11C16.5528 11 17.0002 10.5523 17.0002 10C17.0002 9.44766 16.5527 9 16.0002 9C15.4476 9 15.0002 9.44766 15.0002 10C15.0002 10.5523 15.4476 11 16.0002 11Z" fill="#246DEF"/>
</g>
<defs>
<clipPath id="clip0_497_2938">
<rect width="20" height="20" fill="white"/>
</clipPath>
</defs>
</svg>
