<svg xmlns="http://www.w3.org/2000/svg" width="12" height="11" viewBox="0 0 12 11" fill="none">
  <g clip-path="url(#clip0_14_635)">
    <path d="M5.99999 10.8738C5.82913 10.8738 5.66446 10.8108 5.53609 10.6963C5.05131 10.2645 4.58394 9.85883 4.17159 9.50095L4.16948 9.49908C2.96053 8.44976 1.91655 7.54358 1.19018 6.65091C0.37821 5.65301 0 4.70679 0 3.67313C0 2.66886 0.338109 1.74233 0.951959 1.06414C1.57315 0.377933 2.4255 0 3.35228 0C4.04498 0 4.67933 0.223055 5.23773 0.662911C5.51952 0.884916 5.77494 1.15664 5.99999 1.47359C6.2251 1.15664 6.48046 0.884916 6.76234 0.662911C7.32074 0.223055 7.95509 0 8.64779 0C9.57448 0 10.4269 0.377933 11.0481 1.06414C11.662 1.74233 12 2.66886 12 3.67313C12 4.70676 11.6219 5.65298 10.8099 6.65081C10.0835 7.54358 9.03961 8.44967 7.83085 9.49889C7.41777 9.85735 6.94967 10.2637 6.46379 10.6965C6.33539 10.8109 6.17058 10.8739 5.99999 10.8738ZM3.35228 0.715953C2.62417 0.715953 1.95529 1.01194 1.46868 1.5494C0.974858 2.09501 0.702842 2.8492 0.702842 3.67313C0.702842 4.54248 1.02007 5.31997 1.73135 6.1941C2.41882 7.03901 3.44137 7.92655 4.62533 8.95424L4.62751 8.9561C5.04142 9.31537 5.51064 9.72269 5.99898 10.1576C6.49025 9.72185 6.9602 9.31389 7.37492 8.95405C8.5588 7.92636 9.58125 7.03901 10.2687 6.1941C10.9799 5.31997 11.2971 4.54248 11.2971 3.67313C11.2971 2.84918 11.0251 2.09499 10.5313 1.5494C10.0448 1.01194 9.37582 0.715953 8.64779 0.715953C8.1144 0.715953 7.62467 0.888664 7.19228 1.22919C6.80694 1.53281 6.53851 1.91662 6.3811 2.18517C6.3002 2.32327 6.15775 2.4057 5.99999 2.4057C5.84223 2.4057 5.69978 2.32327 5.61885 2.18517C5.46158 1.91662 5.19313 1.53281 4.80768 1.22919C4.3753 0.888664 3.88558 0.715953 3.35228 0.715953Z" fill="white"/>
    <path d="M3.07042 0.685916L2.80604 0.738791C1.98199 0.903603 1.27719 1.44562 0.901363 2.19727C0.641813 2.71637 0.551394 3.30837 0.646807 3.88084L0.789263 4.73558C0.926322 5.55793 1.3169 6.3169 1.90641 6.90641L5 10C5.55228 10.5523 6.44772 10.5523 7 10L9.95529 7.04471C10.3151 6.68487 10.603 6.25969 10.8034 5.79195L11.3899 4.42361C11.7687 3.53971 11.6587 2.52219 11.0998 1.73966L10.9434 1.5208C10.1462 0.404741 8.59526 0.146244 7.4792 0.943426L7.26292 1.09791C6.51094 1.63504 5.49768 1.62326 4.75839 1.06879C4.27582 0.706863 3.66192 0.567615 3.07042 0.685916Z" fill="white"/>
  </g>
  <defs>
    <clipPath id="clip0_14_635">
      <rect width="12" height="11" fill="white"/>
    </clipPath>
  </defs>
</svg>
