<svg xmlns="http://www.w3.org/2000/svg" width="12" height="12" viewBox="0 0 12 11" fill="none">
<g clip-path="url(#clip0_13_611)">
<path d="M5.99999 10.8739C5.82913 10.8739 5.66446 10.8108 5.53609 10.6963C5.05131 10.2646 4.58394 9.85886 4.17159 9.50098L4.16948 9.49911C2.96053 8.44979 1.91655 7.54361 1.19018 6.65094C0.37821 5.65304 0 4.70682 0 3.67316C0 2.66889 0.338109 1.74236 0.951959 1.06417C1.57315 0.377964 2.4255 3.05176e-05 3.35228 3.05176e-05C4.04498 3.05176e-05 4.67933 0.223086 5.23773 0.662942C5.51952 0.884946 5.77494 1.15668 5.99999 1.47362C6.2251 1.15668 6.48046 0.884946 6.76234 0.662942C7.32074 0.223086 7.95509 3.05176e-05 8.64779 3.05176e-05C9.57448 3.05176e-05 10.4269 0.377964 11.0481 1.06417C11.662 1.74236 12 2.66889 12 3.67316C12 4.70679 11.6219 5.65301 10.8099 6.65084C10.0835 7.54361 9.03961 8.4497 7.83085 9.49892C7.41777 9.85738 6.94967 10.2637 6.46379 10.6965C6.33539 10.8109 6.17058 10.8739 5.99999 10.8739ZM3.35228 0.715984C2.62417 0.715984 1.95529 1.01197 1.46868 1.54943C0.974858 2.09504 0.702842 2.84924 0.702842 3.67316C0.702842 4.54251 1.02007 5.32 1.73135 6.19413C2.41882 7.03904 3.44137 7.92658 4.62533 8.95427L4.62751 8.95613C5.04142 9.3154 5.51064 9.72272 5.99898 10.1576C6.49025 9.72188 6.9602 9.31392 7.37492 8.95408C8.5588 7.92639 9.58125 7.03904 10.2687 6.19413C10.9799 5.32 11.2971 4.54251 11.2971 3.67316C11.2971 2.84921 11.0251 2.09502 10.5313 1.54943C10.0448 1.01197 9.37582 0.715984 8.64779 0.715984C8.1144 0.715984 7.62467 0.888694 7.19228 1.22922C6.80694 1.53284 6.53851 1.91665 6.3811 2.1852C6.3002 2.3233 6.15775 2.40573 5.99999 2.40573C5.84223 2.40573 5.69978 2.3233 5.61885 2.1852C5.46158 1.91665 5.19313 1.53284 4.80768 1.22922C4.3753 0.888694 3.88558 0.715984 3.35228 0.715984Z" fill="#246DEF"/>
</g>
<defs>
<clipPath id="clip0_13_611">
<rect width="12" height="11" fill="white"/>
</clipPath>
</defs>
</svg>