<svg xmlns="http://www.w3.org/2000/svg" width="176" height="28" viewBox="0 0 176 28" fill="none">
<g clip-path="url(#clip0_215_1072)">
<path fill-rule="evenodd" clip-rule="evenodd" d="M2.73715 13.6799C2.18316 12.3947 1.92726 11.0001 1.98873 9.60125C2.0502 8.20238 2.42745 6.83578 3.09203 5.60449C3.7566 4.37319 4.69116 3.30936 5.82522 2.4932C6.95928 1.67703 8.26324 1.12985 9.63878 0.892918C14.1055 1.83284e-05 18.8577 1.83284e-05 22.149 2.88088C23.5678 4.11927 24.5071 5.819 24.8022 7.68233C27.1018 6.25717 29.8022 5.62422 32.4931 5.87968L68.6973 6.28401L69.2514 0.876071H81.5098C81.2747 2.91458 81.0396 4.95309 80.8213 6.99159C85.7079 5.67752 91.4004 4.95309 95.2291 9.11434C97.0615 7.57278 99.2657 6.54181 101.621 6.12487C103.976 5.70793 106.398 5.91969 108.646 6.73889H114.624L115.178 0.842377L161.206 0.876071C166.009 1.39833 169.82 4.12758 170.089 9.13119C170.098 10.4216 169.852 11.7011 169.365 12.8954C168.878 14.0898 168.159 15.1753 167.251 16.0891C168.96 20.5141 171.868 24.3714 175.647 27.225L157.848 27.2756C157.579 26.6185 157.293 25.9784 157.025 25.3382C157.025 25.9447 156.924 26.568 156.89 27.1745H133.566C134.002 23.2323 134.456 19.29 134.892 15.3815L132.542 15.7521C132.161 19.5708 131.764 23.3895 131.349 27.2082H118.453L119.561 17.6895L114.624 18.5319C114.258 20.5635 113.346 22.4565 111.988 24.0072C107.874 28.4212 98.3021 29.1625 94.0368 24.6643C91.8927 26.3479 89.3137 27.3818 86.6035 27.6445C83.8934 27.9071 81.1648 27.3875 78.7391 26.1468C78.7391 26.5343 78.7391 26.9218 78.7391 27.3093H66.4807L66.9341 22.7269C66.1784 24.2431 65.406 25.7425 64.6335 27.2587H55.1963C54.6589 25.4561 54.0712 23.0806 53.3491 20.9411C52.711 19.0879 52.2744 17.5716 50.6288 17.4031C49.4869 17.4031 49.3861 18.3803 49.2518 19.5427C48.9495 22.1035 48.6305 24.5969 48.3282 27.2082H36.1202V26.2479C35.4374 26.5466 34.7293 26.7834 34.0044 26.9555C31.2194 27.5332 28.3352 27.4117 25.6082 26.6017C24.0508 26.1339 22.6698 25.2063 21.6453 23.9398C20.0966 25.201 18.2997 26.1196 16.3725 26.6354C12.9365 27.6295 9.26891 27.4518 5.94448 26.13C0.386227 23.8219 0.319058 19.0879 0.33585 13.9663L2.73715 13.6799Z" fill="white" stroke="#164194" stroke-width="0.4" stroke-linejoin="round"/>
<path fill-rule="evenodd" clip-rule="evenodd" d="M100.401 18.4139C100.401 22.2383 104.381 21.6318 105.439 19.9807L110.695 20.3851C109.872 21.8063 108.619 22.9275 107.118 23.586C105.364 24.2586 103.482 24.5292 101.61 24.3778C100.616 24.4329 99.6225 24.2563 98.7076 23.8617C97.7928 23.4671 96.9816 22.8653 96.3374 22.1035C95.7717 21.3743 95.3645 20.5344 95.1418 19.6379C94.9191 18.7413 94.8859 17.8079 95.0444 16.8977C95.2993 14.9386 96.2325 13.1317 97.6808 11.793C99.5044 10.2812 101.836 9.52764 104.196 9.68711C105.336 9.61319 106.478 9.80429 107.532 10.2455C108.587 10.6868 109.525 11.3662 110.275 12.231C111.255 13.9314 111.584 15.9321 111.199 17.858V18.3634H100.468L100.401 18.4139ZM100.754 15.8026H106.11C105.976 14.219 105.674 12.8375 103.793 12.8375C103.013 12.8726 102.272 13.1939 101.712 13.7404C101.151 14.2869 100.811 15.0207 100.754 15.8026ZM88.9991 15.1624C88.9277 14.6246 88.6521 14.1351 88.2298 13.7961C87.8074 13.4571 87.2709 13.2948 86.7322 13.3429C86.1384 13.3313 85.5544 13.4953 85.053 13.8147C84.5469 14.1674 84.131 14.6351 83.8392 15.1796C83.5474 15.7242 83.3879 16.3302 83.3737 16.9482C83.3737 18.9194 83.3737 20.6041 85.775 20.7894C86.4741 20.8231 87.1652 20.6276 87.7438 20.2325C88.3224 19.8374 88.7571 19.2641 88.9824 18.5993L94.0201 19.1721C93.4698 20.9072 92.2725 22.3619 90.6784 23.2322C89.0161 24.1645 87.1216 24.5973 85.2209 24.4789C84.1157 24.5789 83.0022 24.4296 81.962 24.0419C80.9218 23.6542 79.9813 23.0379 79.2092 22.2383C78.6247 21.5064 78.2062 20.6555 77.9829 19.7448C77.7596 18.8341 77.7368 17.8855 77.9162 16.9651C78.1592 14.9719 79.1137 13.1345 80.603 11.793C82.3733 10.3083 84.6491 9.57136 86.9505 9.73765C88.4673 9.623 89.9869 9.91977 91.3501 10.5969C92.0776 10.9972 92.7004 11.5646 93.1673 12.2527C93.6343 12.9408 93.9323 13.7301 94.0368 14.5559L88.9991 15.1624ZM71.787 10.1083H77.2445L75.5653 24.1083H70.175L71.8542 10.0241L71.787 10.1083ZM53.3155 10.1083H58.9577L60.637 18.9867L64.516 10.1083H69.9735L62.4841 24.0914H57.6479L53.3659 10.1083H53.3155ZM41.3594 10.1083H46.3971L46.0781 12.5006C46.364 11.6836 46.9028 10.9797 47.6158 10.4917C48.3287 10.0038 49.1785 9.75725 50.041 9.78819C50.8251 9.92002 51.5877 10.1581 52.308 10.4958L50.3769 14.2695C47.3375 12.7533 46.2628 15.8195 45.9941 18.2623L45.3392 24.0914H39.7977L41.477 9.99036L41.3594 10.1083ZM28.1271 18.5319C28.0431 22.3562 32.1069 21.7497 33.1648 20.0987L38.4208 20.503C37.592 21.8723 36.3598 22.9496 34.8944 23.586C33.1402 24.2586 31.2584 24.5292 29.3865 24.3778C28.3923 24.4329 27.3988 24.2563 26.484 23.8617C25.5692 23.4671 24.7579 22.8653 24.1137 22.1035C23.5481 21.3743 23.1408 20.5344 22.9181 19.6379C22.6954 18.7413 22.6623 17.8079 22.8207 16.8977C23.0756 14.9386 24.0088 13.1317 25.4571 11.793C27.2568 10.2825 29.5629 9.51734 31.9054 9.65342C33.0454 9.57949 34.1871 9.7706 35.2414 10.2118C36.2958 10.6531 37.2344 11.3326 37.9842 12.1973C38.9644 13.8977 39.2927 15.8984 38.9077 17.8243V18.3297H28.1775L28.1271 18.5319ZM28.3958 15.9206H33.7693C33.635 14.3369 33.3327 12.9555 31.452 12.9555C30.6734 12.9932 29.9348 13.3127 29.3729 13.8547C28.811 14.3967 28.4639 15.1247 28.3958 15.9037V15.9206ZM15.8351 10.1083C15.8616 9.7471 15.8108 9.38442 15.6863 9.04449C15.5618 8.70456 15.3663 8.39523 15.1131 8.13717C14.5153 7.78384 13.823 7.62493 13.1316 7.6823C11.4523 7.80023 10.1425 9.16485 11.4523 10.2768C12.4322 10.6746 13.4509 10.9682 14.4918 11.1528C16.4113 11.4763 18.2385 12.2119 19.8485 13.3093C20.4244 13.8201 20.8586 14.4719 21.1087 15.2012C21.3589 15.9304 21.4164 16.7123 21.2758 17.4705V17.7738C21.1453 18.7553 20.8008 19.6959 20.2667 20.5287C19.7327 21.3615 19.0223 22.066 18.1861 22.592C16.2364 23.7254 14.0062 24.2804 11.7546 24.1925C9.70904 24.349 7.66589 23.8601 5.91089 22.7942C5.08473 22.1922 4.44472 21.3685 4.06448 20.4177C3.68424 19.467 3.57921 18.4279 3.76148 17.42L9.38689 17.083C9.37635 17.591 9.47601 18.0951 9.67898 18.5606C9.88195 19.026 10.1834 19.4416 10.5624 19.7786C12.9301 21.4633 17.2793 19.0541 14.6093 16.8303C14.3376 16.6379 14.0372 16.4901 13.7193 16.3923C12.124 15.8363 10.3608 15.5836 8.88313 14.9771C7.88324 14.6141 6.99686 13.9922 6.3139 13.1745C4.31562 10.361 5.47429 7.19373 8.26181 5.35739C9.97566 4.32389 11.9573 3.8254 13.9544 3.92538C15.7914 3.8155 17.6214 4.23647 19.2272 5.13837C19.9988 5.63847 20.6195 6.34074 21.022 7.16922C21.4246 7.99769 21.5936 8.92082 21.5109 9.83873L15.8351 10.1083Z" fill="#164194"/>
<path fill-rule="evenodd" clip-rule="evenodd" d="M139.527 4.59925H145.472L144.968 9.3333H138.973L139.527 4.59925ZM118.302 4.59925H136.488L136.018 9.3333H117.764L118.302 4.54871V4.59925ZM122.265 24.0577H128.26L129.301 14.0337L123.306 14.9603L122.265 24.0072V24.0577ZM138.587 12.6522L144.699 11.6582L143.373 24.1251H137.378L138.587 12.6522ZM149.922 4.54871H160.803C164.732 4.80141 166.613 6.77253 166.731 9.60286C166.728 11.0346 166.201 12.4156 165.251 13.4838C164.301 14.552 162.993 15.2332 161.575 15.3983C162.406 15.7858 163.146 16.3424 163.751 17.0327C164.355 17.723 164.809 18.5319 165.085 19.4079C165.55 21.1746 166.458 22.7926 167.721 24.1083H160.148L157.495 18.1444C156.588 16.6955 156.37 16.308 154.691 16.1564L153.817 24.1083H147.772L149.2 10.9169L155.413 9.87241L155.312 11.5571H157.327C158.099 11.5571 159.225 11.0686 159.225 10.1083C159.225 9.14798 158.368 8.87843 157.663 8.86158H155.564C155.564 9.03005 155.564 9.35015 155.564 9.50177L149.451 9.40069L149.938 4.54871H149.922Z" fill="#164194"/>
<path fill-rule="evenodd" clip-rule="evenodd" d="M170.257 2.96512C170.253 2.53411 170.363 2.10981 170.576 1.73528C170.793 1.37166 171.1 1.07002 171.466 0.859223C171.837 0.638485 172.261 0.522093 172.692 0.52228C173.118 0.521767 173.536 0.638292 173.901 0.859223C174.266 1.06594 174.568 1.36888 174.774 1.73528C174.994 2.10752 175.11 2.53235 175.11 2.96512C175.108 3.39003 174.998 3.80739 174.791 4.17812C174.574 4.54651 174.268 4.85374 173.901 5.07102C173.534 5.28605 173.116 5.39672 172.692 5.39111C172.262 5.39724 171.838 5.28664 171.466 5.07102C171.099 4.85374 170.793 4.54651 170.576 4.17812C170.362 3.81042 170.251 3.39104 170.257 2.96512ZM170.66 2.96512C170.653 3.32073 170.746 3.67115 170.929 3.97595C171.108 4.28203 171.363 4.53716 171.668 4.71723C171.977 4.89451 172.327 4.98775 172.684 4.98775C173.04 4.98775 173.39 4.89451 173.699 4.71723C174.005 4.53716 174.259 4.28203 174.438 3.97595C174.615 3.66862 174.708 3.31999 174.708 2.96512C174.708 2.61024 174.615 2.26162 174.438 1.95429C174.259 1.64821 174.005 1.39308 173.699 1.21301C173.395 1.02939 173.047 0.930524 172.692 0.926612C172.42 0.930602 172.152 0.987834 171.903 1.09508C171.658 1.19669 171.436 1.3457 171.248 1.5336C171.061 1.7215 170.912 1.94461 170.811 2.19015C170.71 2.43573 170.658 2.69926 170.66 2.96512ZM172.339 3.18413V4.19496H171.768V1.68473H172.961C173.096 1.6839 173.229 1.71876 173.347 1.78582C173.464 1.84824 173.563 1.94137 173.632 2.05537C173.703 2.18427 173.737 2.32966 173.733 2.47655C173.736 2.63862 173.682 2.79662 173.581 2.9229C173.48 3.04918 173.337 3.13569 173.179 3.16729L173.867 4.2455H173.229L172.574 3.23467L172.339 3.18413ZM172.339 2.07222V2.76295H172.658C172.944 2.76295 173.095 2.64502 173.095 2.42601C173.121 2.34376 173.121 2.25555 173.095 2.1733C173.067 2.14237 173.034 2.11743 172.996 2.10005C172.959 2.08266 172.918 2.07319 172.877 2.07222H172.339Z" fill="#164194"/>
<path fill-rule="evenodd" clip-rule="evenodd" d="M110.057 10.3947H146.093L112.357 15.7521C112.391 14.7442 112.202 13.7412 111.805 12.815C111.407 11.8888 110.81 11.0623 110.057 10.3947Z" fill="#E30613"/>
<path fill-rule="evenodd" clip-rule="evenodd" d="M71.955 8.37307L72.358 4.64984H77.6979L77.3285 8.37307H71.955Z" fill="#E30613"/>
</g>
<defs>
<clipPath id="clip0_215_1072">
<rect width="176" height="28" fill="white"/>
</clipPath>
</defs>
</svg>