<svg xmlns="http://www.w3.org/2000/svg" width="21" height="21" viewBox="0 0 21 21" fill="none">
  <path d="M16.8653 13.497C16.5491 12.5369 16.3875 11.5328 16.3865 10.522V8.02448C16.4096 6.44197 15.8448 4.90716 14.8015 3.71698C13.7619 2.52493 12.3188 1.75847 10.749 1.56448C9.88154 1.47448 8.99904 1.56448 8.16154 1.84823C7.32404 2.11698 6.56154 2.56573 5.91904 3.16448C5.27334 3.74779 4.75868 4.46141 4.40904 5.25823C4.05766 6.05475 3.87426 6.91516 3.87029 7.78573V10.5357C3.86846 11.5423 3.70687 12.5423 3.39154 13.4982L2.64404 15.7095L3.24279 16.532H7.62404C7.62404 17.1895 7.89279 17.832 8.35654 18.297C8.81904 18.7595 9.46279 19.0295 10.1215 19.0295C10.779 19.0295 11.4215 18.7607 11.8853 18.297C12.349 17.8332 12.619 17.1895 12.619 16.532H17.0003L17.5978 15.7095L16.8653 13.497ZM11.0028 17.4307C10.8878 17.548 10.7507 17.6414 10.5995 17.7056C10.4482 17.7697 10.2858 17.8033 10.1215 17.8045C9.95697 17.8033 9.79425 17.7696 9.64278 17.7053C9.49131 17.6409 9.35409 17.5472 9.23904 17.4295C9.12151 17.3146 9.02787 17.1776 8.96351 17.0263C8.89915 16.8751 8.86535 16.7126 8.86404 16.5482H11.3628C11.368 16.7122 11.3388 16.8755 11.277 17.0275C11.2152 17.1795 11.1222 17.3169 11.004 17.4307H11.0028ZM4.10904 15.2932L4.57279 13.9007C4.93443 12.8159 5.12135 11.6805 5.12654 10.537V7.78573C5.12654 7.08198 5.27654 6.39448 5.56029 5.76573C5.84404 5.12323 6.24779 4.55448 6.77154 4.09073C7.29529 3.61323 7.90904 3.25323 8.56654 3.04448C9.23904 2.81948 9.94154 2.74448 10.629 2.81948C11.8891 2.98516 13.0443 3.60794 13.8753 4.56948C14.7065 5.53222 15.1534 6.76776 15.1303 8.03948V10.552C15.1303 11.6882 15.3103 12.8245 15.684 13.9157L16.1478 15.307H4.11029V15.292L4.10904 15.2932Z" fill="#0D0C21"/>
</svg>