<svg xmlns="http://www.w3.org/2000/svg" width="20" height="20" viewBox="0 0 20 20" fill="none">
  <path d="M17.2583 16.0749L14.425 13.2499C15.3392 12.0853 15.8352 10.6471 15.8333 9.16655C15.8333 7.84801 15.4423 6.55907 14.7098 5.46275C13.9773 4.36642 12.9361 3.51193 11.7179 3.00735C10.4997 2.50277 9.15927 2.37074 7.86607 2.62798C6.57286 2.88521 5.38497 3.52015 4.45262 4.4525C3.52027 5.38485 2.88534 6.57274 2.6281 7.86595C2.37087 9.15915 2.50289 10.4996 3.00747 11.7178C3.51206 12.9359 4.36654 13.9771 5.46287 14.7097C6.5592 15.4422 7.84813 15.8332 9.16667 15.8332C10.6472 15.8351 12.0854 15.339 13.25 14.4249L16.075 17.2582C16.1525 17.3363 16.2446 17.3983 16.3462 17.4406C16.4477 17.4829 16.5567 17.5047 16.6667 17.5047C16.7767 17.5047 16.8856 17.4829 16.9872 17.4406C17.0887 17.3983 17.1809 17.3363 17.2583 17.2582C17.3364 17.1807 17.3984 17.0886 17.4407 16.987C17.4831 16.8855 17.5048 16.7766 17.5048 16.6665C17.5048 16.5565 17.4831 16.4476 17.4407 16.3461C17.3984 16.2445 17.3364 16.1524 17.2583 16.0749ZM4.16667 9.16655C4.16667 8.17764 4.45991 7.21094 5.00932 6.3887C5.55873 5.56645 6.33962 4.92559 7.25325 4.54715C8.16688 4.16871 9.17222 4.06969 10.1421 4.26262C11.112 4.45555 12.0029 4.93175 12.7022 5.63101C13.4015 6.33028 13.8777 7.22119 14.0706 8.1911C14.2635 9.161 14.1645 10.1663 13.7861 11.08C13.4076 11.9936 12.7668 12.7745 11.9445 13.3239C11.1223 13.8733 10.1556 14.1665 9.16667 14.1665C7.84059 14.1665 6.56882 13.6398 5.63114 12.7021C4.69345 11.7644 4.16667 10.4926 4.16667 9.16655Z" fill="#0D0C21"/>
</svg>