<svg xmlns="http://www.w3.org/2000/svg" width="48" height="48" viewBox="0 0 48 48" fill="none">
<path d="M23.9128 31.1727L29.9933 35.7741C30.4315 36.0663 30.8698 36.075 31.308 35.8004C31.7462 35.5272 31.8741 35.135 31.6915 34.6237L29.3907 27.0095L35.3617 22.7367C35.7999 22.408 35.9277 21.9968 35.7451 21.5031C35.5625 21.0108 35.2156 20.7646 34.7043 20.7646H27.4187L24.9536 12.7669C24.771 12.2556 24.4241 12 23.9128 12C23.4016 12 23.0546 12.2556 22.872 12.7669L20.407 20.7646H13.1214C12.6101 20.7646 12.2632 21.0108 12.0806 21.5031C11.898 21.9968 12.0258 22.408 12.464 22.7367L18.4349 27.0095L16.1342 34.6237C15.9516 35.135 16.0794 35.5272 16.5177 35.8004C16.9559 36.075 17.3941 36.0663 17.8324 35.7741L23.9128 31.1727Z" fill="#246DEF"/>
</svg>