<svg xmlns="http://www.w3.org/2000/svg" width="49" height="48" viewBox="0 0 48 48" fill="none">
<path d="M24.4128 31.1727L30.4933 35.7741C30.9315 36.0663 31.3698 36.075 31.808 35.8004C32.2462 35.5272 32.3741 35.135 32.1915 34.6237L29.8907 27.0095L35.8617 22.7367C36.2999 22.408 36.4277 21.9968 36.2451 21.5031C36.0625 21.0108 35.7156 20.7646 35.2043 20.7646H27.9187L25.4536 12.7669C25.271 12.2556 24.9241 12 24.4128 12C23.9016 12 23.5546 12.2556 23.372 12.7669L20.907 20.7646H13.6214C13.1101 20.7646 12.7632 21.0108 12.5806 21.5031C12.398 21.9968 12.5258 22.408 12.964 22.7367L18.9349 27.0095L16.6342 34.6237C16.4516 35.135 16.5794 35.5272 17.0177 35.8004C17.4559 36.075 17.8941 36.0663 18.3324 35.7741L24.4128 31.1727Z" fill="#E1ECFE"/>
</svg>