<svg xmlns="http://www.w3.org/2000/svg" width="16" height="16" viewBox="0 0 16 16" fill="none">
<path d="M7.97094 10.3909L9.99777 11.9247C10.1438 12.0221 10.2899 12.025 10.436 11.9335C10.5821 11.8424 10.6247 11.7117 10.5638 11.5412L9.79691 9.00315L11.7872 7.5789C11.9333 7.46934 11.9759 7.33227 11.915 7.16769C11.8542 7.0036 11.7385 6.92155 11.5681 6.92155H9.13956L8.31788 4.25564C8.25701 4.08521 8.14137 4 7.97094 4C7.80052 4 7.68488 4.08521 7.62401 4.25564L6.80232 6.92155H4.37379C4.20336 6.92155 4.08772 7.0036 4.02685 7.16769C3.96599 7.33227 4.00859 7.46934 4.15467 7.5789L6.14498 9.00315L5.37807 11.5412C5.3172 11.7117 5.35981 11.8424 5.50589 11.9335C5.65196 12.025 5.79804 12.0221 5.94412 11.9247L7.97094 10.3909Z" fill="#246DEF"/>
</svg>