<svg xmlns="http://www.w3.org/2000/svg" width="16" height="16" viewBox="0 0 16 16" fill="#246DEF">
<path d="M7.97094 10.8909L9.99777 12.4247C10.1438 12.5221 10.2899 12.525 10.436 12.4335C10.5821 12.3424 10.6247 12.2117 10.5638 12.0413L9.79691 9.50318L11.7872 8.07893C11.9333 7.96937 11.9759 7.8323 11.915 7.66772C11.8542 7.50363 11.7385 7.42158 11.5681 7.42158H9.13956L8.31788 4.75567C8.25701 4.58524 8.14137 4.50003 7.97094 4.50003C7.80052 4.50003 7.68488 4.58524 7.62401 4.75567L6.80232 7.42158H4.37379C4.20336 7.42158 4.08772 7.50363 4.02685 7.66772C3.96599 7.8323 4.00859 7.96937 4.15467 8.07893L6.14498 9.50318L5.37807 12.0413C5.3172 12.2117 5.35981 12.3424 5.50589 12.4335C5.65196 12.525 5.79804 12.5221 5.94412 12.4247L7.97094 10.8909Z"/>
</svg>
