<svg xmlns="http://www.w3.org/2000/svg" width="20" height="20" viewBox="0 0 20 20" fill="none">
<path d="M9.99967 9.99999C12.3009 9.99999 14.1663 8.13451 14.1663 5.83332C14.1663 3.53214 12.3009 1.66666 9.99967 1.66666C7.69849 1.66666 5.83301 3.53214 5.83301 5.83332C5.83301 8.13451 7.69849 9.99999 9.99967 9.99999Z" stroke="white" stroke-width="1.66667"/>
<path d="M14.1666 11.6667H14.4599C15.0691 11.6668 15.6573 11.8895 16.114 12.2927C16.5706 12.696 16.8643 13.2521 16.9399 13.8567L17.2657 16.46C17.295 16.6945 17.2741 16.9326 17.2044 17.1584C17.1346 17.3842 17.0177 17.5927 16.8612 17.7698C16.7048 17.947 16.5125 18.0889 16.297 18.186C16.0816 18.2832 15.8479 18.3334 15.6116 18.3333H4.38822C4.15187 18.3334 3.91822 18.2832 3.70276 18.186C3.4873 18.0889 3.29497 17.947 3.13853 17.7698C2.9821 17.5927 2.86513 17.3842 2.79539 17.1584C2.72566 16.9326 2.70475 16.6945 2.73405 16.46L3.05905 13.8567C3.13463 13.2518 3.42857 12.6955 3.88558 12.2922C4.34259 11.8889 4.9312 11.6664 5.54072 11.6667H5.83322" stroke="white" stroke-width="1.66667" stroke-linecap="round" stroke-linejoin="round"/>
</svg>
