<svg xmlns="http://www.w3.org/2000/svg" width="20" height="21" viewBox="0 0 20 21" fill="none">
<path d="M9.99967 10.2808C12.3009 10.2808 14.1663 8.4153 14.1663 6.11412C14.1663 3.81293 12.3009 1.94745 9.99967 1.94745C7.69849 1.94745 5.83301 3.81293 5.83301 6.11412C5.83301 8.4153 7.69849 10.2808 9.99967 10.2808Z" stroke="#0D0C21" stroke-width="1.66667"/>
<path d="M14.1666 11.9474H14.4599C15.0691 11.9476 15.6573 12.1703 16.114 12.5735C16.5706 12.9768 16.8643 13.5329 16.9399 14.1374L17.2657 16.7408C17.295 16.9753 17.2741 17.2134 17.2044 17.4392C17.1346 17.665 17.0177 17.8734 16.8612 18.0506C16.7048 18.2278 16.5125 18.3696 16.297 18.4668C16.0816 18.5639 15.8479 18.6142 15.6116 18.6141H4.38822C4.15187 18.6142 3.91822 18.5639 3.70276 18.4668C3.4873 18.3696 3.29497 18.2278 3.13853 18.0506C2.9821 17.8734 2.86513 17.665 2.79539 17.4392C2.72566 17.2134 2.70475 16.9753 2.73405 16.7408L3.05905 14.1374C3.13463 13.5326 3.42857 12.9763 3.88558 12.573C4.34259 12.1697 4.9312 11.9472 5.54072 11.9474H5.83322" stroke="#0D0C21" stroke-width="1.66667" stroke-linecap="round" stroke-linejoin="round"/>
</svg>