<svg xmlns="http://www.w3.org/2000/svg" width="16" height="16" viewBox="0 0 16 16" fill="none">
<g clip-path="url(#clip0_799_1693)">
<path d="M2.87873 7.71345C1.2914 7.71345 0 9.00485 0 10.5922C0 11.3947 0.438789 12.364 1.30421 13.4731C1.92232 14.2652 2.53318 14.8381 2.5589 14.8621L2.87877 15.1607L3.19863 14.8621C3.22435 14.8381 3.83521 14.2652 4.45332 13.4731C5.31871 12.364 5.75753 11.3947 5.75753 10.5922C5.7575 9.00485 4.4661 7.71345 2.87873 7.71345ZM2.87873 11.5235C2.3652 11.5235 1.94741 11.1057 1.94741 10.5922C1.94741 10.0787 2.3652 9.66089 2.87873 9.66089C3.39226 9.66089 3.81005 10.0787 3.81005 10.5922C3.81005 11.1057 3.39226 11.5235 2.87873 11.5235ZM13.1212 0.838867C11.5339 0.838867 10.2425 2.13027 10.2425 3.7176C10.2425 4.52009 10.6813 5.48935 11.5467 6.59846C12.1648 7.39061 12.7757 7.96345 12.8013 7.98744L13.1212 8.28609L13.441 7.98744C13.4668 7.96345 14.0776 7.39061 14.6957 6.59846C15.5611 5.48935 15.9999 4.52009 15.9999 3.7176C16 2.1303 14.7086 0.838867 13.1212 0.838867ZM13.1212 4.64895C12.6077 4.64895 12.1899 4.23116 12.1899 3.71763C12.1899 3.2041 12.6077 2.78631 13.1212 2.78631C13.6348 2.78631 14.0526 3.2041 14.0526 3.71763C14.0526 4.23116 13.6348 4.64895 13.1212 4.64895Z" fill="#246DEF"/>
<path d="M11.4026 14.9882H4.75366V14.0508H11.4026C12.0919 14.0508 12.6526 13.4901 12.6526 12.8008C12.6526 12.1116 12.0919 11.5509 11.4026 11.5509H8.78122C7.57512 11.5509 6.59387 10.5697 6.59387 9.36359C6.59387 8.15749 7.57512 7.17627 8.78122 7.17627H11.2464V8.11365H8.78122C8.09196 8.11365 7.53125 8.67436 7.53125 9.36359C7.53125 10.0528 8.09196 10.6135 8.78122 10.6135H11.4026C12.6087 10.6135 13.59 11.5947 13.59 12.8008C13.59 14.0069 12.6087 14.9882 11.4026 14.9882Z" fill="#246DEF"/>
</g>
<defs>
<clipPath id="clip0_799_1693">
<rect width="16" height="16" fill="white"/>
</clipPath>
</defs>
</svg>
