<svg xmlns="http://www.w3.org/2000/svg" width="16" height="16" viewBox="0 0 16 16" fill="none">
<g opacity="0.5">
<path d="M8.62676 7.99995L11.8668 4.75995C11.9396 4.67493 11.9776 4.56556 11.9733 4.45371C11.969 4.34185 11.9226 4.23575 11.8435 4.15659C11.7643 4.07744 11.6582 4.03107 11.5463 4.02675C11.4345 4.02243 11.3251 4.06048 11.2401 4.13329L8.0001 7.37329L4.7601 4.12884C4.67507 4.05603 4.56571 4.01798 4.45385 4.0223C4.34199 4.02662 4.23589 4.07299 4.15674 4.15215C4.07758 4.2313 4.03121 4.33741 4.02689 4.44926C4.02257 4.56112 4.06062 4.67049 4.13343 4.75551L7.37343 7.99995L4.12899 11.24C4.08246 11.2798 4.04467 11.3288 4.018 11.384C3.99132 11.4391 3.97633 11.4992 3.97396 11.5604C3.9716 11.6216 3.98191 11.6826 4.00426 11.7397C4.0266 11.7967 4.06049 11.8485 4.10381 11.8918C4.14712 11.9351 4.19892 11.969 4.25595 11.9913C4.31299 12.0137 4.37402 12.024 4.43523 12.0216C4.49644 12.0193 4.5565 12.0043 4.61164 11.9776C4.66678 11.9509 4.71581 11.9131 4.75565 11.8666L8.0001 8.62662L11.2401 11.8666C11.3251 11.9394 11.4345 11.9775 11.5463 11.9732C11.6582 11.9688 11.7643 11.9225 11.8435 11.8433C11.9226 11.7642 11.969 11.6581 11.9733 11.5462C11.9776 11.4343 11.9396 11.325 11.8668 11.24L8.62676 7.99995Z" fill="#0D0C21"/>
</g>
</svg>